<svg xmlns="http://www.w3.org/2000/svg" viewBox="0 0 400 300" width="0" height="0" class="illustration styles_illustrationTablet__1DWOa"><g id="_292_card_payment_outline" data-name="#292_card_payment_outline"><path d="M158.92,230.48l14.31-13.9s28-3,41.31-11.17,11.58-11.36,11.58-11.36c10.79-5.09,7.22-15.28,7.22-15.28,10.58-7.83,4.31-11.45,4.31-11.45,10.58-12.63-.78-17.72-3.13-21.77s-23.5-1.63-29.47,0-43.78,10.12-48.48,12.86-32.75,32.9-32.75,32.9Z" fill="#ffc9b0"></path><path d="M158.92,231.48h0a1,1,0,0,1-.71-.34L123.08,192a1,1,0,0,1,0-1.35c1.15-1.24,28.21-30.3,33-33.09,3.31-1.93,20.84-6.22,38.51-10.45,4.83-1.16,8.64-2.07,10.2-2.5,4.42-1.21,27.66-4.62,30.6.46a16.06,16.06,0,0,0,2.27,2.59c3.76,3.76,9.39,9.39,1.4,19.54a4.88,4.88,0,0,1,1.44,3.15c.15,2.68-1.87,5.65-6,8.84.59,2.48,1.76,10.78-7.29,15.46-.09,1.74-2,5.35-12.13,11.63-12.71,7.85-38,10.9-41.39,11.28l-14.06,13.65A1,1,0,0,1,158.92,231.48Zm-33.74-40.16L159,229l13.56-13.17a1,1,0,0,1,.59-.27c.28,0,27.93-3,40.9-11,11.2-6.92,11.19-9.9,11.17-10.14a1,1,0,0,1,.5-1.27c9.82-4.64,6.84-13.67,6.71-14.05a1,1,0,0,1,.35-1.13c4.87-3.61,5.81-6.07,5.74-7.5a3,3,0,0,0-1.35-2.29,1,1,0,0,1-.47-.69,1,1,0,0,1,.21-.81c7.74-9.24,3.09-13.89-.64-17.63a16.2,16.2,0,0,1-2.59-3c-1.74-3-21-1.56-28.34.46-1.59.44-5.42,1.35-10.26,2.51-13,3.11-34.64,8.3-38,10.24C153.54,161.34,135,180.75,125.18,191.32Zm100.06,3.21h0Zm0,0Zm0,0Z" fill="#093f68"></path><path d="M252.51,165.6a9.25,9.25,0,0,0,4.49,1.81,4.86,4.86,0,0,0,4.33-1.81,6.91,6.91,0,0,0,.9-4.23,30,30,0,0,0-5.41-16.17c-3.67-5.2-15.24-7.61-15,1.35C241.89,152.94,247.41,162.07,252.51,165.6Z" fill="#ffc9b0"></path><path d="M257.44,168.43l-.51,0a10,10,0,0,1-5-2c-5.16-3.57-11-12.82-11.17-19.85-.1-4.55,2.55-6.1,4.14-6.63,4-1.31,10.07.92,12.72,4.69a31,31,0,0,1,5.6,16.7,7.77,7.77,0,0,1-1.08,4.85A5.75,5.75,0,0,1,257.44,168.43Zm-10-26.87a6.19,6.19,0,0,0-1.92.28c-1.88.62-2.81,2.2-2.76,4.69.12,6.35,5.64,15,10.3,18.25h0a8.19,8.19,0,0,0,4,1.63,3.88,3.88,0,0,0,3.44-1.39,6.06,6.06,0,0,0,.71-3.62A29,29,0,0,0,256,145.78,11.42,11.42,0,0,0,247.45,141.56Z" fill="#093f68"></path><rect x="159.86" y="68.74" width="124.34" height="81.7" rx="7.88" fill="#68e1fd"></rect><path d="M276.32,151.43H167.75a8.89,8.89,0,0,1-8.89-8.88V76.62a8.89,8.89,0,0,1,8.89-8.88H276.32a8.89,8.89,0,0,1,8.88,8.88v65.93A8.89,8.89,0,0,1,276.32,151.43ZM167.75,69.74a6.89,6.89,0,0,0-6.89,6.88v65.93a6.89,6.89,0,0,0,6.89,6.88H276.32a6.89,6.89,0,0,0,6.88-6.88V76.62a6.89,6.89,0,0,0-6.88-6.88Z" fill="#093f68"></path><rect x="159.86" y="85.2" width="124.34" height="16.75" fill="#fff"></rect><path d="M284.2,103H159.86a1,1,0,0,1-1-1V85.2a1,1,0,0,1,1-1H284.2a1,1,0,0,1,1,1V102A1,1,0,0,1,284.2,103Zm-123.34-2H283.2V86.2H160.86Z" fill="#093f68"></path><path d="M246.73,141.6a11.93,11.93,0,1,1,11.93-11.93A11.94,11.94,0,0,1,246.73,141.6Zm0-21.86a9.93,9.93,0,1,0,9.93,9.93A9.95,9.95,0,0,0,246.73,119.74Z" fill="#093f68"></path><path d="M263.81,141.6a11.93,11.93,0,1,1,11.93-11.93A11.94,11.94,0,0,1,263.81,141.6Zm0-21.86a9.93,9.93,0,1,0,9.93,9.93A9.94,9.94,0,0,0,263.81,119.74Z" fill="#093f68"></path><path d="M182.17,110.59H169.11a1,1,0,0,1,0-2h13.06a1,1,0,0,1,0,2Z" fill="#093f68"></path><path d="M201.09,110.59H188a1,1,0,0,1,0-2h13.06a1,1,0,0,1,0,2Z" fill="#093f68"></path><path d="M220,110.59H207a1,1,0,0,1,0-2H220a1,1,0,0,1,0,2Z" fill="#093f68"></path><path d="M238.93,110.59H225.87a1,1,0,0,1,0-2h13.06a1,1,0,0,1,0,2Z" fill="#093f68"></path><path d="M141.72,172.93s5.37-16.1,11.29-25.17,23.88-23.11,30.27-25,36.31-10.18,41-5.48-.37,14.89-9,18.8-22,6.66-22,6.66,6.54,16.45-9.82,30.16" fill="#ffc9b0"></path><path d="M141.71,173.93a1.12,1.12,0,0,1-.31-.05,1,1,0,0,1-.63-1.27c.22-.66,5.48-16.32,11.4-25.39s24-23.41,30.83-25.41c6.09-1.8,36.73-10.5,42-5.24a7.86,7.86,0,0,1,1.92,7.19C226,129,221.4,134.42,215.74,137c-7.29,3.32-17.74,5.76-21.12,6.5,1.13,4,3.79,18.23-10.47,30.18a1,1,0,0,1-1.28-1.54c6.57-5.5,10.17-12.07,10.69-19.52a23.62,23.62,0,0,0-1.16-9.5,1,1,0,0,1,.73-1.35c.13,0,13.37-2.76,21.78-6.59,5.1-2.31,9.24-7.15,10.07-11.76a6,6,0,0,0-1.37-5.42c-3.46-3.44-25.85,1.54-40.05,5.73-5.89,1.74-23.71,15.38-29.71,24.59-5.78,8.86-11.13,24.78-11.19,24.94A1,1,0,0,1,141.71,173.93Z" fill="#093f68"></path><rect x="205.05" y="149.91" width="45.14" height="17.21" rx="8.07" fill="#ffc9b0"></rect><path d="M242.12,168.12h-29a9.08,9.08,0,0,1-9.07-9.07V158a9.08,9.08,0,0,1,9.07-9.07h29a9.07,9.07,0,0,1,9.06,9.07v1.07A9.07,9.07,0,0,1,242.12,168.12Zm-29-17.21a7.08,7.08,0,0,0-7.07,7.07v1.07a7.08,7.08,0,0,0,7.07,7.07h29a7.07,7.07,0,0,0,7.06-7.07V158a7.07,7.07,0,0,0-7.06-7.07Z" fill="#093f68"></path><rect x="203.55" y="167.43" width="45.14" height="17.21" rx="8.07" fill="#ffc9b0"></rect><path d="M240.62,185.64h-29a9.08,9.08,0,0,1-9.07-9.07V175.5a9.08,9.08,0,0,1,9.07-9.07h29a9.07,9.07,0,0,1,9.06,9.07v1.07A9.07,9.07,0,0,1,240.62,185.64Zm-29-17.21a7.08,7.08,0,0,0-7.07,7.07v1.07a7.08,7.08,0,0,0,7.07,7.07h29a7.07,7.07,0,0,0,7.06-7.07V175.5a7.07,7.07,0,0,0-7.06-7.07Z" fill="#093f68"></path><rect x="200.61" y="184.64" width="45.14" height="17.21" rx="8.07" fill="#ffc9b0"></rect><path d="M237.68,202.85h-29a9.08,9.08,0,0,1-9.07-9.07v-1.07a9.08,9.08,0,0,1,9.07-9.07h29a9.08,9.08,0,0,1,9.07,9.07v1.07A9.08,9.08,0,0,1,237.68,202.85Zm-29-17.21a7.08,7.08,0,0,0-7.07,7.07v1.07a7.08,7.08,0,0,0,7.07,7.07h29a7.08,7.08,0,0,0,7.07-7.07v-1.07a7.08,7.08,0,0,0-7.07-7.07Z" fill="#093f68"></path><polygon points="171.63 219.42 129.34 179.45 111.8 198.02 152.95 239.26 171.63 219.42" fill="#f56132"></polygon><path d="M153,240.26a1,1,0,0,1-.71-.29l-41.15-41.25a1,1,0,0,1,0-1.39l17.54-18.56a1,1,0,0,1,.7-.32,1,1,0,0,1,.71.27l42.3,40a1,1,0,0,1,0,1.41L153.67,240a1,1,0,0,1-.71.31ZM113.19,198l39.74,39.83,17.29-18.37-40.84-38.59Z" fill="#093f68"></path></g></svg>