<svg id="_210_creative_process_outline" data-name="#210_creative_process_outline" xmlns="http://www.w3.org/2000/svg" viewBox="0 0 400 300" width="406" height="306" class="illustration styles_illustrationTablet__1DWOa"><polygon points="136.28 142.22 118.02 135.97 181.5 101.27 199.75 107.93 136.28 142.22" fill="#68e1fd"></polygon><path d="M136.28,143.22a1,1,0,0,1-.33-.06l-18.25-6.24a1,1,0,0,1-.16-1.83L181,100.39a1,1,0,0,1,.82-.06L200.1,107a1,1,0,0,1,.65.86,1,1,0,0,1-.52,1L136.75,143.1A1,1,0,0,1,136.28,143.22Zm-15.78-7.46,15.69,5.37,61.13-33-15.74-5.73Z" fill="#093f68"></path><polygon points="199.75 107.93 214.22 101.27 281.98 135.47 263.23 142.22 199.75 107.93" fill="#68e1fd"></polygon><path d="M263.23,143.22a1,1,0,0,1-.48-.12l-63.47-34.29a1,1,0,0,1-.53-.92,1,1,0,0,1,.58-.87l14.48-6.66a1,1,0,0,1,.87,0l67.75,34.2a1,1,0,0,1,.54,1,1,1,0,0,1-.66.88l-18.74,6.74A1,1,0,0,1,263.23,143.22ZM202,108l61.32,33.13,16.14-5.81L214.2,102.38Z" fill="#093f68"></path><polygon points="199.75 107.93 136.28 142.13 136.28 208.08 199.75 219.01 263.23 208.08 263.23 142.13 199.75 107.93" fill="#093f68"></polygon><path d="M199.75,220h-.17l-63.47-10.93a1,1,0,0,1-.83-1v-66a1,1,0,0,1,.52-.88l63.48-34.2a1,1,0,0,1,.95,0l63.47,34.2a1,1,0,0,1,.53.88v66a1,1,0,0,1-.83,1L199.92,220Zm-62.47-12.77L199.75,218l62.48-10.76V142.73l-62.48-33.67-62.47,33.67Z" fill="#093f68"></path><ellipse cx="199.75" cy="174.02" rx="10.84" ry="8.28" fill="#093f68"></ellipse><path d="M199.75,183.3c-6.52,0-11.83-4.16-11.83-9.28s5.31-9.27,11.83-9.27,11.84,4.16,11.84,9.27S206.28,183.3,199.75,183.3Zm0-16.55c-5.42,0-9.83,3.26-9.83,7.27s4.41,7.28,9.83,7.28,9.84-3.26,9.84-7.28S205.18,166.75,199.75,166.75Z" fill="#093f68"></path><path d="M231.87,116.87A32.12,32.12,0,1,0,177,139.55a31.52,31.52,0,0,1,8.22,15.21l.26,1.1H214l.31-1.33a33.35,33.35,0,0,1,8.62-15.44A32,32,0,0,0,231.87,116.87Z" fill="#ffbc0e"></path><path d="M214,156.86H185.5a1,1,0,0,1-1-.77l-.25-1.1a30.51,30.51,0,0,0-8-14.73,33.11,33.11,0,0,1,21.33-56.43,32.87,32.87,0,0,1,24.79,8.91,33.27,33.27,0,0,1,10.44,24.14,32.94,32.94,0,0,1-9.21,22.9,32.52,32.52,0,0,0-8.37,15l-.31,1.34A1,1,0,0,1,214,156.86Zm-27.72-2h26.93l.13-.56a34.47,34.47,0,0,1,8.87-15.91,31.11,31.11,0,1,0-44.49.45,32.57,32.57,0,0,1,8.48,15.69Z" fill="#093f68"></path><rect x="183.44" y="155.86" width="32.64" height="6.59" rx="2.96" fill="#fff"></rect><path d="M213.11,163.45H186.4a4,4,0,0,1-4-4v-.67a4,4,0,0,1,4-4h26.71a4,4,0,0,1,4,4v.67A4,4,0,0,1,213.11,163.45Zm-26.71-6.59a2,2,0,0,0-2,2v.67a2,2,0,0,0,2,2h26.71a2,2,0,0,0,2-2v-.67a2,2,0,0,0-2-2Z" fill="#093f68"></path><rect x="183.44" y="162.45" width="32.64" height="6.59" rx="2.96" fill="#fff"></rect><path d="M213.11,170H186.4a4,4,0,0,1-4-4v-.66a4,4,0,0,1,4-4h26.71a4,4,0,0,1,4,4v.66A4,4,0,0,1,213.11,170Zm-26.71-6.59a2,2,0,0,0-2,2v.66a2,2,0,0,0,2,2h26.71a2,2,0,0,0,2-2v-.66a2,2,0,0,0-2-2Z" fill="#093f68"></path><rect x="183.44" y="169.04" width="32.64" height="6.59" rx="2.96" fill="#fff"></rect><path d="M213.11,176.64H186.4a4,4,0,0,1-4-4V172a4,4,0,0,1,4-4h26.71a4,4,0,0,1,4,4v.66A4,4,0,0,1,213.11,176.64ZM186.4,170a2,2,0,0,0-2,2v.66a2,2,0,0,0,2,2h26.71a2,2,0,0,0,2-2V172a2,2,0,0,0-2-2Z" fill="#093f68"></path><path d="M194.31,153.82a1,1,0,0,1-1-.87l-5.4-40a1,1,0,0,1,.57-1,1,1,0,0,1,1.16.23l10.62,11.57L211,109.37a1,1,0,0,1,1.79.71l-4.94,42.85a1,1,0,0,1-2-.22l4.52-39.18-9.22,12.3a1,1,0,0,1-.75.4,1,1,0,0,1-.78-.32l-9.29-10.11,5,36.89a1,1,0,0,1-.86,1.12Z" fill="#fff"></path><polygon points="199.75 176.42 263.23 142.22 263.23 208.17 199.75 242.38 199.75 176.42" fill="#68e1fd"></polygon><path d="M199.75,243.38a1,1,0,0,1-.51-.15,1,1,0,0,1-.49-.85v-66a1,1,0,0,1,.53-.88l63.47-34.2a1,1,0,0,1,1,0,1,1,0,0,1,.49.86v65.95a1,1,0,0,1-.53.88l-63.47,34.2A1,1,0,0,1,199.75,243.38Zm1-66.36V240.7l61.48-33.13V143.89Z" fill="#093f68"></path><polygon points="199.75 176.42 136.28 142.22 136.28 208.17 199.75 242.38 199.75 176.42" fill="#68e1fd"></polygon><path d="M199.75,243.38a1,1,0,0,1-.47-.13l-63.48-34.2a1,1,0,0,1-.52-.88V142.22a1,1,0,0,1,1.47-.88l63.48,34.2a1,1,0,0,1,.52.88v66a1,1,0,0,1-1,1Zm-62.47-35.81,61.47,33.13V177l-61.47-33.13Z" fill="#093f68"></path><polygon points="199.75 176.42 215.71 197.96 279.35 164.91 263.23 142.22 199.75 176.42" fill="#68e1fd"></polygon><path d="M215.71,199a1,1,0,0,1-.81-.4L199,177a1,1,0,0,1-.17-.82,1,1,0,0,1,.5-.66l63.47-34.2a1,1,0,0,1,1.29.3l16.12,22.69a1,1,0,0,1,.16.82,1,1,0,0,1-.51.65l-63.64,33A1,1,0,0,1,215.71,199Zm-14.47-22.21L216,196.68l61.86-32.13-14.93-21Z" fill="#093f68"></path><polygon points="199.75 176.42 183.47 197.96 120.49 164.58 136.28 142.22 199.75 176.42" fill="#68e1fd"></polygon><path d="M183.47,199a1,1,0,0,1-.47-.11l-63-33.38a1,1,0,0,1-.35-1.47l15.79-22.36a1,1,0,0,1,1.29-.3l63.48,34.2a1,1,0,0,1,.5.67,1,1,0,0,1-.18.81l-16.28,21.55A1,1,0,0,1,183.47,199ZM122,164.23l61.23,32.45,15.06-19.93-61.67-33.23Z" fill="#093f68"></path><polygon points="193.11 229.87 172.06 219.01 172.06 209.71 193.11 220.56 193.11 229.87" fill="#f56132"></polygon><path d="M193.11,230.87a1,1,0,0,1-.46-.11L171.6,219.9a1,1,0,0,1-.54-.89v-9.3a1,1,0,0,1,1.46-.89l21,10.86a1,1,0,0,1,.54.89v9.3a1,1,0,0,1-1,1ZM173.06,218.4l19.05,9.83v-7.06l-19.05-9.82Z" fill="#093f68"></path><path d="M200,74.92a1,1,0,0,1-1-1V57.62a1,1,0,0,1,2,0v16.3A1,1,0,0,1,200,74.92Z" fill="#dfeaef"></path><path d="M182.1,76.12a1,1,0,0,1-.94-.66l-4.92-13.32a1,1,0,0,1,1.88-.69L183,74.77a1,1,0,0,1-.59,1.28A.91.91,0,0,1,182.1,76.12Z" fill="#dfeaef"></path><path d="M168.52,85.76a1,1,0,0,1-.63-.22l-12.34-9.89a1,1,0,0,1-.15-1.41,1,1,0,0,1,1.41-.16L169.15,84a1,1,0,0,1,.15,1.41A1,1,0,0,1,168.52,85.76Z" fill="#dfeaef"></path><path d="M159.88,101.65a.69.69,0,0,1-.2,0l-19-3.93a1,1,0,1,1,.4-2l19,3.93a1,1,0,0,1-.2,2Z" fill="#dfeaef"></path><path d="M217.9,76.12a.91.91,0,0,1-.35-.07,1,1,0,0,1-.59-1.28l4.92-13.32a1,1,0,0,1,1.88.69l-4.92,13.32A1,1,0,0,1,217.9,76.12Z" fill="#dfeaef"></path><path d="M231.48,85.76a1,1,0,0,1-.78-.37,1,1,0,0,1,.15-1.41l12.34-9.9a1,1,0,0,1,1.26,1.57l-12.34,9.89A1,1,0,0,1,231.48,85.76Z" fill="#dfeaef"></path><path d="M240.12,101.65a1,1,0,0,1-.2-2l19-3.93a1,1,0,1,1,.4,2l-19,3.93A.69.69,0,0,1,240.12,101.65Z" fill="#dfeaef"></path></svg>