<svg xmlns="http://www.w3.org/2000/svg" viewBox="0 0 400 300" width="406" height="306" class="illustration styles_illustrationTablet__1DWOa"><g id="_532_sending_emails_flatline" data-name="#532_sending_emails_flatline"><polygon points="309.71 135.89 309.71 256.65 86.74 256.65 86.74 135.89 198.23 68.48 309.71 135.89" fill="#f1f2f2"></polygon><path d="M309.71,257.15h-223a.5.5,0,0,1-.5-.5V135.89a.5.5,0,0,1,.25-.43L198,68.05a.49.49,0,0,1,.52,0L310,135.46a.5.5,0,0,1,.24.43V256.65A.5.5,0,0,1,309.71,257.15Zm-222.47-1h222v-120l-111-67.11-111,67.11Z" fill="#231f20"></path><path d="M246.65,85.61s5.15-9.62,4.48-16-7-7.52-7-7.52-15.27-7.95-18.81-13.46l.12,8.06a22.45,22.45,0,0,1-7.53-4.39s-2.38,4.11.19,7.77c0,0-4.5.88-7.46-2.1,0,0,1.51,12.1,12.18,13.66C229.85,72.61,239,86.08,246.65,85.61Z" fill="#fff"></path><path d="M246.26,86.12c-4.22,0-8.75-3.8-13.13-7.47-3.76-3.15-7.3-6.13-10.36-6.57-10.92-1.6-12.59-14-12.61-14.1a.5.5,0,0,1,.85-.41,8.12,8.12,0,0,0,6.26,2c-2-3.67.13-7.45.23-7.61a.49.49,0,0,1,.75-.14,24.54,24.54,0,0,0,6.7,4.08l-.11-7.35a.48.48,0,0,1,.35-.48.5.5,0,0,1,.57.2c3.32,5.16,17.5,12.69,18.56,13.25.77.17,6.64,1.64,7.31,8,.68,6.51-4.33,15.94-4.54,16.34a.5.5,0,0,1-.41.26Zm.39-.51h0ZM211.42,59.2c.76,3.12,3.42,10.7,11.5,11.89,3.33.49,7,3.55,10.85,6.79,4.25,3.56,8.63,7.24,12.49,7.24h.08c.79-1.55,4.88-9.87,4.29-15.51-.62-6-6.33-7-6.57-7.08l-.14-.05c-.59-.3-13.36-7-18.06-12.39l.1,6.54a.51.51,0,0,1-.19.4.5.5,0,0,1-.44.09A22.07,22.07,0,0,1,218.11,53a6.82,6.82,0,0,0,.42,6.7.54.54,0,0,1,.05.48.5.5,0,0,1-.37.3A9.87,9.87,0,0,1,211.42,59.2Z" fill="#231f20"></path><path d="M238.73,185.2s24.61-29.81,28.68-52.58-10.15-28-15.11-29.7-30.81-12.42-43.79-3.06-25.91,67.75-25.91,67.75Z" fill="#2cb8f8"></path><path d="M150,214.87l26.47-33s18.42-23.49,8.13-26c0,0-14.28,1.86-37.61,10-6.93,2.41-18.84,29.93-26.36,49Z" fill="#231f20"></path><path d="M150,215.37H120.58a.49.49,0,0,1-.41-.22.5.5,0,0,1,0-.46c8.34-21.16,19.74-46.9,26.66-49.31,23.1-8,37.56-10,37.71-10h.18a4.18,4.18,0,0,1,3.21,2.72c2.37,6.8-10.51,23.34-11.06,24l-26.48,33A.5.5,0,0,1,150,215.37Zm-28.63-1h28.39L176,181.52c.13-.16,13.09-16.8,10.91-23.08a3.15,3.15,0,0,0-2.42-2.05c-1.26.17-15.38,2.27-37.41,9.94C142,168.1,132.88,185.15,121.32,214.37Z" fill="#231f20"></path><path d="M194.33,214.87l6.72-16.37s16.4,4.91,27.34.79c7.7-2.9,10.05-12.85,13.53-20.91,0,0-46-10.9-56.27-15.34,0,0-.64,0-12.41,12.36-5.26,5.55-9.45,22.46-12.47,39.47Z" fill="#231f20"></path><path d="M194.33,215.37H160.77a.5.5,0,0,1-.39-.18.52.52,0,0,1-.11-.4c3.84-21.6,8.09-35,12.61-39.73,11.92-12.56,12.56-12.53,12.79-12.52a.58.58,0,0,1,.18,0C196,167,241.58,177.79,242,177.9a.51.51,0,0,1,.33.26.51.51,0,0,1,0,.42c-.65,1.5-1.27,3.1-1.87,4.64-2.69,6.93-5.48,14.1-11.95,16.54-10.1,3.8-24.48.1-27.22-.66l-6.55,16A.49.49,0,0,1,194.33,215.37Zm-33-1H194l6.6-16.06a.49.49,0,0,1,.6-.29c.17,0,16.37,4.81,27,.8,6-2.27,8.75-9.23,11.37-16,.53-1.37,1.08-2.78,1.65-4.13-5.31-1.27-45.51-10.93-55.53-15.13-.57.43-2.93,2.5-12.1,12.15C169.32,180.26,165.09,193.61,161.36,214.37Z" fill="#231f20"></path><path d="M208.51,99.86s-11,12-17.14,18-18.18,13.77-18.18,13.77-35.9,2.89-36.28,3.46,0,12.49,0,12.49,35.08,6.73,41.48,5.57,21.5-11.31,21.5-11.31Z" fill="#2cb8f8"></path><path d="M223.79,93.9l-1.11,11.29s2,6.48,9.62,5.32,9-6.38,9-6.38l4.94-22.06s-4.57-3.3-8.88-16.2c0,0-15.92-3-16.47,3.14,0,0-3.14,11-2.91,16.81C218.19,91.47,223.69,93.81,223.79,93.9Z" fill="#fff"></path><path d="M230.55,111.15a8.8,8.8,0,0,1-8.34-5.81.41.41,0,0,1,0-.19l1.06-11c-3.57-1.94-5.65-5-5.78-8.36-.23-5.84,2.8-16.51,2.93-17a3.51,3.51,0,0,1,1.49-2.54c4-3.06,15.09-1,15.55-1a.52.52,0,0,1,.39.34c4.18,12.53,8.65,15.92,8.7,16a.51.51,0,0,1,.19.51l-4.94,22.06c-.07.25-1.6,5.57-9.41,6.77A13.17,13.17,0,0,1,230.55,111.15Zm-7.36-6c.28.78,2.38,5.9,9,4.88,7.17-1.1,8.58-6,8.59-6l4.87-21.73c-1.05-.91-5-4.87-8.71-16-1.76-.3-11.12-1.74-14.48.81a2.6,2.6,0,0,0-1.11,1.93c0,.2-3.13,11-2.91,16.74.17,4.26,3.47,6.59,5.42,7.59a1.28,1.28,0,0,1,.24.15.49.49,0,0,1,.15.41Z" fill="#231f20"></path><path d="M240.76,82.45A4.89,4.89,0,0,1,242.63,80a6.13,6.13,0,0,1,4.55-1.12c1.85.52,2.79,2.78,2.39,4.66a6.81,6.81,0,0,1-4.36,4.95,5.93,5.93,0,0,1-4.52-.48" fill="#fff"></path><path d="M243.54,89.23a6.39,6.39,0,0,1-3.09-.78.5.5,0,1,1,.48-.88,5.47,5.47,0,0,0,4.14.44,6.3,6.3,0,0,0,4-4.57c.33-1.57-.42-3.63-2-4.07a5.55,5.55,0,0,0-4.14,1,4.29,4.29,0,0,0-1.67,2.19.5.5,0,1,1-1-.32,5.36,5.36,0,0,1,2.06-2.7,6.55,6.55,0,0,1,5-1.19c2.18.6,3.18,3.2,2.75,5.24A7.33,7.33,0,0,1,245.35,89,6.19,6.19,0,0,1,243.54,89.23Z" fill="#231f20"></path><path d="M229.61,76.92s-4.58,5.31-3.78,6.43,3.45.76,3.45.76" fill="#fff"></path><path d="M228.35,84.67a3.66,3.66,0,0,1-2.93-1c-.89-1.25,2-5,3.81-7a.5.5,0,0,1,.75.65c-2.2,2.56-3.95,5.28-3.74,5.83.45.62,2.07.66,3,.54a.5.5,0,0,1,.13,1A9,9,0,0,1,228.35,84.67Z" fill="#231f20"></path><ellipse cx="236.99" cy="76.09" rx="1.36" ry="0.96" transform="translate(124.02 297.89) rotate(-80.81)" fill="#231f20"></ellipse><ellipse cx="225.37" cy="75.35" rx="0.96" ry="1.36" transform="translate(-2.48 7.89) rotate(-1.99)" fill="#231f20"></ellipse><path d="M223.79,93.9s6.86,2.31,11.23.35c0,0-5.5,9-12,7.39Z" fill="#231f20"></path><path d="M224.64,102.34a6.94,6.94,0,0,1-1.73-.21.51.51,0,0,1-.38-.53l.76-7.74a.52.52,0,0,1,.22-.38.5.5,0,0,1,.43,0c.07,0,6.74,2.22,10.88.36a.51.51,0,0,1,.58.13.5.5,0,0,1,0,.59C235.24,94.86,230.6,102.34,224.64,102.34Zm-1.07-1.09c4.49.79,8.5-3.78,10.18-6-3.59.88-7.95-.19-9.53-.65Z" fill="#231f20"></path><path d="M223.88,78.91h-.33l-3.69-.29a4,4,0,0,1-3.67-4.3l.24-3a.5.5,0,0,1,.54-.45l10.66.84a.52.52,0,0,1,.34.18.48.48,0,0,1,.12.36l-.24,3a4,4,0,0,1-4,3.67Zm-6.49-7-.2,2.46a3,3,0,0,0,2.75,3.22l3.69.29h0a2.92,2.92,0,0,0,2.18-.7,3,3,0,0,0,1.05-2l.19-2.46Z" fill="#231f20"></path><path d="M237.14,80h-.33l-3.69-.3a4,4,0,0,1-3.67-4.3l.24-3a.5.5,0,0,1,.54-.46l10.66.85a.49.49,0,0,1,.45.53l-.23,3a4,4,0,0,1-4,3.68Zm-.25-1a3,3,0,0,0,2.18-.71,3,3,0,0,0,1-2l.2-2.46L230.64,73l-.19,2.45a3,3,0,0,0,2.75,3.22Z" fill="#231f20"></path><path d="M230,74.82h0l-2.6-.21a.5.5,0,0,1-.46-.54.52.52,0,0,1,.54-.46l2.6.21a.5.5,0,0,1,0,1Z" fill="#231f20"></path><path d="M228.39,92.46c-3.13,0-5.6-2.42-6.59-5.24a.5.5,0,0,1,.08-.47.44.44,0,0,1,.42-.2,30.31,30.31,0,0,0,12.52-2,.5.5,0,0,1,.49.05.49.49,0,0,1,.21.45c0,.23-.52,5.72-5.35,7.1A6.24,6.24,0,0,1,228.39,92.46ZM223,87.58c1.05,2.21,3.48,4.64,6.87,3.66,3.12-.89,4.16-3.91,4.49-5.39A31.92,31.92,0,0,1,223,87.58Z" fill="#231f20"></path><path d="M265.11,112.18c5.82,2.73,15.27,66.69,5,71-16,6.67-59.31-16-59.31-16l8.52-16.77s29.42,8.76,31.46,2.78-8.06-38.87-4.62-42.45S265.11,112.18,265.11,112.18Z" fill="#2cb8f8"></path><path d="M220.93,157.18a69.94,69.94,0,0,1-14.55-4.67c-3.58-1.71-6.67-3.35-10.66-4.21a42.9,42.9,0,0,0-15.07-.56,1.25,1.25,0,0,0-.57.19c-.59.5.28,1.36,1,1.59a20.26,20.26,0,0,0,6,.82,57.53,57.53,0,0,0-15,3.45c-.55.21-1.2.6-1.11,1.17s1.05.74,1.73.63l11.9-2a27.61,27.61,0,0,0-8.76,2.56c-.39.19-.84.47-.86.91,0,.76,1.06.9,1.81.75a64.08,64.08,0,0,0,10.7-3.15l-7.89,3.25a1.05,1.05,0,0,0,.76,1.29,3.12,3.12,0,0,0,1.65-.13l8.43-2.26-5.41,2c-.85.31-1.88.89-1.74,1.79.16,1.06,1.63,1.14,2.69,1a57.15,57.15,0,0,1,12.67-.47c1.55.09,3.1-.17,4.58.28,2.13.65,4.28,2.19,6.26,3.23,3.1,1.62,6.19,3.27,9.28,4.92" fill="#fff"></path><path d="M218.81,169.94a.44.44,0,0,1-.22-.05q-4.62-2.47-9.28-4.92c-.62-.32-1.26-.7-1.91-1.09a21.09,21.09,0,0,0-4.27-2.1,9.51,9.51,0,0,0-2.89-.25c-.53,0-1.05,0-1.58,0a56.29,56.29,0,0,0-12.57.47,3.87,3.87,0,0,1-2.62-.37,1.45,1.45,0,0,1-.59-1,1.6,1.6,0,0,1,.59-1.48l-1.3.35a3.39,3.39,0,0,1-1.91.12,1.69,1.69,0,0,1-1-.87,1.23,1.23,0,0,1,0-1c-.77.18-1.53.35-2.3.51a2.52,2.52,0,0,1-2-.34,1.07,1.07,0,0,1-.37-.88c0-.78.82-1.16,1.11-1.3l.58-.27-3.45.58a2.56,2.56,0,0,1-1.79-.26,1.13,1.13,0,0,1-.46-.75c-.06-.4,0-1.15,1.4-1.66a57.51,57.51,0,0,1,10.93-3A19.17,19.17,0,0,1,181,150a2.24,2.24,0,0,1-1.52-1.42,1,1,0,0,1,.34-.95,1.57,1.57,0,0,1,.79-.29,43.13,43.13,0,0,1,15.23.56,40.53,40.53,0,0,1,9.49,3.64l1.28.61A70.62,70.62,0,0,0,221,156.73a.46.46,0,0,1,.34.55.45.45,0,0,1-.55.34,71.94,71.94,0,0,1-14.64-4.69l-1.28-.62a40,40,0,0,0-9.29-3.56,42,42,0,0,0-14.91-.55.64.64,0,0,0-.33.09c0,.28.43.66.85.79a20,20,0,0,0,5.86.8h0a.46.46,0,0,1,0,.91,57.34,57.34,0,0,0-14.86,3.43c-.4.15-.86.42-.82.67a.21.21,0,0,0,.09.15,1.7,1.7,0,0,0,1.11.1l9.21-1.56a27.37,27.37,0,0,1,2.71-.46.47.47,0,0,1,.51.39.46.46,0,0,1-.38.52l-2.67.45a27.18,27.18,0,0,0-6,2.07c-.49.24-.6.42-.6.52a.17.17,0,0,0,.06.15,1.69,1.69,0,0,0,1.19.13,63.63,63.63,0,0,0,10.64-3.13.46.46,0,0,1,.59.25.47.47,0,0,1-.25.6l-7.66,3.16a.22.22,0,0,0,0,.13.77.77,0,0,0,.44.39,2.61,2.61,0,0,0,1.4-.13l8.43-2.27a.46.46,0,0,1,.27.87l-5.4,2c-.47.17-1.55.64-1.45,1.29a.55.55,0,0,0,.23.38,2.87,2.87,0,0,0,1.93.21,57,57,0,0,1,12.78-.48c.5,0,1,0,1.51,0a10.09,10.09,0,0,1,3.17.29,20.7,20.7,0,0,1,4.46,2.19c.64.37,1.27.74,1.88,1.06q4.65,2.44,9.28,4.92a.45.45,0,0,1,.19.62A.44.44,0,0,1,218.81,169.94Z" fill="#231f20"></path><path d="M210.34,105.75c-2.07,1.21-13.17,26.17-18,38.08" fill="#fff"></path><path d="M192.37,144.29a.46.46,0,0,1-.43-.63c4.37-10.83,15.81-36.93,18.17-38.31a.46.46,0,1,1,.47.79c-1.77,1-12.33,24.33-17.79,37.86A.45.45,0,0,1,192.37,144.29Z" fill="#231f20"></path><polygon points="131.2 153.74 130.63 158.82 195.48 186.75 195.68 181.41 131.2 153.74" fill="#fff"></polygon><path d="M195.48,187.25a.45.45,0,0,1-.2,0l-64.85-27.93a.5.5,0,0,1-.3-.52l.57-5.08a.47.47,0,0,1,.25-.37.48.48,0,0,1,.45,0L195.88,181a.49.49,0,0,1,.3.48l-.2,5.34a.52.52,0,0,1-.24.41A.48.48,0,0,1,195.48,187.25Zm-64.32-28.74L195,186l.17-4.28-63.55-27.27Z" fill="#231f20"></path><path d="M131.2,153.74s18.89-9.06,19.37-8.8,67.29,27,67.29,27l-22.18,9.47Z" fill="#fff"></path><path d="M195.68,181.91a.48.48,0,0,1-.2,0L131,154.2a.5.5,0,0,1-.3-.45.49.49,0,0,1,.28-.46c19.13-9.18,19.55-8.95,19.83-8.79,1,.45,66.58,26.71,67.24,27a.48.48,0,0,1,.31.46.49.49,0,0,1-.3.46l-22.18,9.47A.48.48,0,0,1,195.68,181.91Zm-63.27-28.2,63.27,27.16L216.55,172c-10.32-4.14-62.76-25.13-66.06-26.51C149.19,145.79,139.19,150.47,132.41,153.71Z" fill="#231f20"></path><polygon points="195.48 186.75 217.03 176.72 217.86 171.94 195.68 181.41 195.48 186.75" fill="#fff"></polygon><path d="M195.48,187.25a.46.46,0,0,1-.28-.08.48.48,0,0,1-.22-.44l.2-5.34a.52.52,0,0,1,.3-.44l22.19-9.47a.48.48,0,0,1,.5.07.47.47,0,0,1,.18.48l-.82,4.77a.53.53,0,0,1-.28.37l-21.56,10A.52.52,0,0,1,195.48,187.25Zm.69-5.5L196,186l20.58-9.58.62-3.62Z" fill="#231f20"></path><polygon points="131.2 153.74 129.87 106.81 197.76 137.98 195.68 181.41 131.2 153.74" fill="#fff"></polygon><path d="M195.68,181.91a.48.48,0,0,1-.2,0L131,154.2a.49.49,0,0,1-.3-.45l-1.34-46.93a.5.5,0,0,1,.23-.43.49.49,0,0,1,.48,0L198,137.53a.48.48,0,0,1,.29.47l-2.08,43.43a.5.5,0,0,1-.23.4A.45.45,0,0,1,195.68,181.91Zm-64-28.51,63.53,27.27,2-42.38L130.39,107.6Z" fill="#231f20"></path><path d="M231.83,179a.54.54,0,0,1-.21,0l-13.73-6.33a.5.5,0,0,1-.28-.57l4.15-17.36a.49.49,0,0,1,.57-.38l26.84,4.3-.88-42.54a.49.49,0,0,1,.49-.51h0a.51.51,0,0,1,.5.49l.89,43.14a.48.48,0,0,1-.18.38.49.49,0,0,1-.4.12l-27-4.32-3.95,16.51L232,178a.49.49,0,0,1,.24.66A.49.49,0,0,1,231.83,179Z" fill="#231f20"></path><path d="M112.84,214.87c-2.33-1.76-5.12-2.69-7.09,0Z" fill="#fff"></path><path d="M112.84,215.33h-7.09a.47.47,0,0,1-.41-.25.46.46,0,0,1,0-.48,4.23,4.23,0,0,1,2.82-1.83c1.45-.22,3.11.37,4.92,1.74a.47.47,0,0,1,.16.51A.48.48,0,0,1,112.84,215.33Zm-6.07-.91h4.55a4.86,4.86,0,0,0-3-.75A3,3,0,0,0,106.77,214.42Z" fill="#231f20"></path><path d="M163.93,199.85h-.08a.5.5,0,0,1-.41-.57c.08-.5,2-12.24,5.71-18.2a.5.5,0,0,1,.85.52c-3.57,5.79-5.56,17.72-5.58,17.84A.49.49,0,0,1,163.93,199.85Z" fill="#fff"></path><polygon points="225.73 112.69 226.75 116.11 214 142.37 217.63 151.76 225.59 144.97 228.86 116.09 230.55 114.35 228.81 111.44 225.73 112.69" fill="#231f20"></polygon><polygon points="309.71 135.89 309.71 256.65 86.74 256.65 86.74 135.89 198.23 211.81 309.71 135.89" fill="#fff"></polygon><path d="M309.71,257.15h-223a.5.5,0,0,1-.5-.5V135.89a.49.49,0,0,1,.27-.44.51.51,0,0,1,.52,0l111.2,75.74,111.2-75.74a.49.49,0,0,1,.51,0,.48.48,0,0,1,.27.44V256.65A.5.5,0,0,1,309.71,257.15Zm-222.47-1h222V136.83l-110.7,75.4a.52.52,0,0,1-.56,0L87.24,136.83Z" fill="#231f20"></path><path d="M198.23,212.31a.54.54,0,0,1-.28-.08L86.46,136.3a.5.5,0,0,1-.13-.69.51.51,0,0,1,.7-.14l111.2,75.74,111.2-75.74a.5.5,0,0,1,.69.14.49.49,0,0,1-.13.69L198.51,212.23A.57.57,0,0,1,198.23,212.31Z" fill="#231f20"></path><polygon points="86.74 256.65 198.22 187.16 309.71 256.65 86.74 256.65" fill="#fff"></polygon><path d="M309.71,257.15h-223a.5.5,0,0,1-.48-.36.49.49,0,0,1,.22-.56L198,186.74a.51.51,0,0,1,.53,0L310,256.23a.49.49,0,0,1,.22.56A.5.5,0,0,1,309.71,257.15Zm-221.22-1H308l-109.73-68.4Z" fill="#231f20"></path><rect x="258.39" y="204.08" width="64.33" height="35.66" transform="translate(-45.91 78.87) rotate(-14.34)" fill="#2cb8f8"></rect><path d="M263.81,247.65a.59.59,0,0,1-.26-.07.56.56,0,0,1-.23-.31l-8.83-34.55a.51.51,0,0,1,.36-.61l62.33-15.93a.55.55,0,0,1,.38,0,.48.48,0,0,1,.23.31l8.83,34.55a.5.5,0,0,1-.36.61l-62.33,15.93ZM255.59,213l8.58,33.58,61.36-15.69L317,197.27Z" fill="#231f20"></path><polygon points="263.81 247.15 290.02 219.8 326.14 231.21 263.81 247.15" fill="#2cb8f8"></polygon><path d="M263.81,247.65a.5.5,0,0,1-.43-.25.48.48,0,0,1,.07-.6l26.21-27.34a.51.51,0,0,1,.51-.14l36.12,11.42a.5.5,0,0,1,.35.49.51.51,0,0,1-.38.47l-62.33,15.93Zm26.36-27.28-24.79,25.86,58.94-15.07Z" fill="#231f20"></path><polygon points="254.98 212.6 291.54 225.74 317.31 196.66 254.98 212.6" fill="#2cb8f8"></polygon><path d="M291.54,226.24a.47.47,0,0,1-.17,0l-36.56-13.14a.5.5,0,0,1-.33-.49.51.51,0,0,1,.37-.47l62.33-15.93a.51.51,0,0,1,.55.22.5.5,0,0,1-.05.6l-25.77,29.07A.48.48,0,0,1,291.54,226.24Zm-34.86-13.56,34.71,12.47,24.46-27.6Z" fill="#231f20"></path><rect x="316.66" y="168.32" width="36.64" height="20.31" transform="translate(-33.05 85.64) rotate(-13.89)" fill="#2cb8f8"></rect><path d="M319.63,193.23a.51.51,0,0,1-.49-.38l-4.87-19.71a.51.51,0,0,1,.36-.61l35.57-8.79a.48.48,0,0,1,.6.36l4.88,19.71a.5.5,0,0,1-.06.38.48.48,0,0,1-.31.23l-35.56,8.79Zm-4.27-19.85L320,192.12l34.59-8.55L350,164.83Z" fill="#231f20"></path><polygon points="319.63 192.73 334.68 177.27 355.19 183.93 319.63 192.73" fill="#2cb8f8"></polygon><path d="M319.63,193.23a.48.48,0,0,1-.43-.25.5.5,0,0,1,.07-.6l15.05-15.45a.49.49,0,0,1,.51-.13l20.52,6.66a.5.5,0,0,1,0,1l-35.56,8.79Zm15.19-15.38-13.61,14,32.16-7.95Z" fill="#231f20"></path><polygon points="314.75 173.02 335.51 180.66 350.32 164.22 314.75 173.02" fill="#2cb8f8"></polygon><path d="M335.52,181.16a.57.57,0,0,1-.18,0l-20.76-7.64a.5.5,0,0,1-.32-.5.49.49,0,0,1,.37-.46l35.57-8.79a.5.5,0,0,1,.55.22.51.51,0,0,1-.06.6L335.89,181A.54.54,0,0,1,335.52,181.16Zm-19.06-8,18.91,7,13.49-15Z" fill="#231f20"></path><rect x="270.4" y="165" width="31.94" height="17.7" transform="translate(-46.04 132.21) rotate(-24.12)" fill="#2cb8f8"></rect><path d="M275.42,189a.49.49,0,0,1-.46-.29l-7.23-16.16a.49.49,0,0,1,.25-.66l29.14-13.05a.51.51,0,0,1,.67.25L305,175.2a.5.5,0,0,1,0,.38.55.55,0,0,1-.26.28l-29.15,13A.51.51,0,0,1,275.42,189Zm-6.58-16.4,6.83,15.24,28.23-12.64-6.82-15.24Z" fill="#231f20"></path><polygon points="275.42 188.45 285.93 172.87 304.56 175.4 275.42 188.45" fill="#2cb8f8"></polygon><path d="M275.42,189a.49.49,0,0,1-.42-.78l10.52-15.58a.5.5,0,0,1,.48-.22l18.63,2.54a.5.5,0,0,1,.43.42.51.51,0,0,1-.29.53l-29.15,13A.51.51,0,0,1,275.42,189Zm10.75-15.55-9.36,13.88,25.95-11.62Z" fill="#231f20"></path><polygon points="268.18 172.3 287.18 175.64 297.33 159.25 268.18 172.3" fill="#2cb8f8"></polygon><path d="M287.17,176.14h-.08l-19-3.34a.49.49,0,0,1-.4-.43.5.5,0,0,1,.29-.52l29.14-13.05a.51.51,0,0,1,.59.13.49.49,0,0,1,0,.59l-10.15,16.4A.51.51,0,0,1,287.17,176.14Zm-17.3-4,17.06,3,9.12-14.72Z" fill="#231f20"></path><path d="M169.43,43.35H110.79a6.93,6.93,0,0,0-6.93,6.93v30a6.93,6.93,0,0,0,6.93,6.93H163l6.22,10.66.08-10.66h.17a6.93,6.93,0,0,0,6.93-6.93v-30A6.93,6.93,0,0,0,169.43,43.35Z" fill="#fff"></path><path d="M169.18,98.37a.5.5,0,0,1-.43-.25l-6.07-10.41H110.79a7.44,7.44,0,0,1-7.43-7.43v-30a7.44,7.44,0,0,1,7.43-7.43h58.64a7.43,7.43,0,0,1,7.43,7.43v30a7.43,7.43,0,0,1-7.1,7.42l-.08,10.18a.48.48,0,0,1-.37.47A.27.27,0,0,1,169.18,98.37ZM110.79,43.85a6.44,6.44,0,0,0-6.43,6.43v30a6.44,6.44,0,0,0,6.43,6.43H163a.5.5,0,0,1,.44.25l5.3,9.09.06-8.84a.5.5,0,0,1,.5-.5h.17a6.44,6.44,0,0,0,6.43-6.43v-30a6.43,6.43,0,0,0-6.43-6.43Z" fill="#231f20"></path><polygon points="130.45 66.85 156.73 50.77 134.46 60.04 130.45 66.85" fill="#231f20"></polygon><path d="M130.45,67.35a.5.5,0,0,1-.35-.15.51.51,0,0,1-.08-.61l4-6.8a.49.49,0,0,1,.24-.21l22.27-9.28a.5.5,0,0,1,.45.89L130.71,67.27A.5.5,0,0,1,130.45,67.35Zm4.36-6.91-2.91,4.93L151,53.71Z" fill="#231f20"></path><polygon points="134.46 60.04 143.06 64.43 156.73 50.77 134.46 60.04" fill="#2cb8f8"></polygon><path d="M143.06,64.89a.5.5,0,0,1-.21,0l-8.59-4.39A.46.46,0,0,1,134,60a.44.44,0,0,1,.28-.4l22.27-9.28a.46.46,0,0,1,.49.75L143.38,64.75A.47.47,0,0,1,143.06,64.89Zm-7.51-4.81L143,63.87l11.8-11.79Z" fill="#231f20"></path><polygon points="156.73 50.77 128.44 57.52 122.01 53.85 156.73 50.77" fill="#2cb8f8"></polygon><path d="M128.44,58a.43.43,0,0,1-.22-.06l-6.44-3.68a.46.46,0,0,1-.22-.49.46.46,0,0,1,.41-.36l34.72-3.08a.48.48,0,0,1,.49.38.46.46,0,0,1-.34.52L128.55,58Zm-4.94-3.81,5,2.87,22-5.27Z" fill="#231f20"></path><polygon points="128.44 57.52 130.45 66.85 134.46 60.04 156.73 50.77 128.44 57.52" fill="#2cb8f8"></polygon><path d="M130.45,67.3h-.07a.45.45,0,0,1-.37-.36l-2-9.32a.45.45,0,0,1,.34-.54l28.28-6.76a.48.48,0,0,1,.55.3.47.47,0,0,1-.26.57L134.78,60.4l-3.93,6.68A.47.47,0,0,1,130.45,67.3ZM129,57.86l1.67,7.75,3.42-5.8a.45.45,0,0,1,.22-.19l17-7.09Z" fill="#231f20"></path><text transform="translate(126.73 80.54)" font-size="13.06" font-family="MyriadPro-Regular, Myriad Pro"><tspan letter-spacing="0.01em">S</tspan><tspan x="6.52" y="0">e</tspan><tspan x="13.06" y="0" letter-spacing="0em">n</tspan><tspan x="20.25" y="0" letter-spacing="0em">t</tspan></text><path d="M165.4,244.85a.5.5,0,0,1,0-1c1.33,0,2.66,0,4-.1a.5.5,0,0,1,0,1c-1.34.05-2.68.08-4,.1Zm-4,0h0c-1.33,0-2.67,0-4-.1a.5.5,0,0,1-.48-.51.52.52,0,0,1,.52-.49c1.33.05,2.65.08,4,.1a.5.5,0,0,1,0,1Zm12-.28a.49.49,0,0,1-.49-.47.5.5,0,0,1,.47-.53c1.32-.07,2.65-.16,4-.27a.49.49,0,0,1,.53.46.5.5,0,0,1-.46.54c-1.33.1-2.66.19-4,.27Zm-20,0h0c-1.34-.08-2.67-.17-4-.28a.5.5,0,1,1,.08-1c1.33.11,2.65.2,4,.28a.5.5,0,0,1,0,1Zm28-.63a.52.52,0,0,1-.5-.45.5.5,0,0,1,.45-.55q2-.21,4-.45a.5.5,0,1,1,.13,1q-2,.26-4,.45Zm-35.93,0h-.05c-1.33-.15-2.66-.31-4-.48a.5.5,0,1,1,.13-1c1.31.17,2.63.33,4,.47a.5.5,0,0,1-.06,1Zm43.87-1a.5.5,0,0,1-.49-.42.49.49,0,0,1,.42-.57c1.31-.2,2.63-.41,3.94-.63a.49.49,0,0,1,.57.41.48.48,0,0,1-.4.57c-1.32.23-2.64.44-4,.64Zm-51.79-.08h-.08c-1.32-.21-2.64-.44-3.95-.68a.5.5,0,0,1,.18-1c1.31.25,2.62.47,3.93.68a.5.5,0,0,1-.08,1Zm59.68-1.27a.5.5,0,0,1-.1-1c1.31-.26,2.62-.53,3.91-.81a.5.5,0,0,1,.22,1l-3.93.81Zm-67.53-.2h-.11c-1.31-.28-2.61-.58-3.91-.9a.49.49,0,0,1-.36-.6.5.5,0,0,1,.6-.37c1.29.32,2.58.61,3.88.89a.5.5,0,0,1,.38.6A.49.49,0,0,1,129.67,241.39ZM205,239.88a.49.49,0,0,1-.48-.38.5.5,0,0,1,.36-.61q1.95-.48,3.87-1a.5.5,0,0,1,.61.35.52.52,0,0,1-.35.62c-1.29.34-2.59.67-3.89,1Zm-83.11-.38-.14,0c-1.29-.36-2.57-.73-3.85-1.12a.5.5,0,1,1,.3-1c1.26.39,2.54.76,3.82,1.11a.51.51,0,0,1,.35.62A.5.5,0,0,1,121.91,239.5Zm90.84-1.71a.5.5,0,0,1-.14-1c1.28-.37,2.55-.77,3.81-1.17a.5.5,0,1,1,.31,1c-1.27.41-2.55.8-3.84,1.18A.32.32,0,0,1,212.75,237.79Zm-98.48-.64a.45.45,0,0,1-.16,0c-1.27-.43-2.53-.89-3.77-1.36a.5.5,0,0,1,.35-.93c1.24.46,2.48.91,3.74,1.34a.51.51,0,0,1,.31.64A.49.49,0,0,1,114.27,237.15Zm106.1-1.82a.49.49,0,0,1-.47-.33.51.51,0,0,1,.31-.64c1.26-.44,2.51-.9,3.75-1.37a.49.49,0,0,1,.64.29.5.5,0,0,1-.29.65c-1.24.47-2.5.93-3.77,1.38A.47.47,0,0,1,220.37,235.33Zm-113.57-1a.43.43,0,0,1-.19,0c-1.24-.52-2.48-1.06-3.68-1.6a.5.5,0,0,1-.24-.67.49.49,0,0,1,.66-.24c1.19.54,2.41,1.08,3.64,1.59a.49.49,0,0,1,.27.65A.48.48,0,0,1,106.8,234.32Zm121.06-1.84a.48.48,0,0,1-.46-.31.49.49,0,0,1,.27-.65c1.23-.51,2.45-1,3.66-1.57a.5.5,0,0,1,.66.26.51.51,0,0,1-.25.66c-1.22.54-2.45,1.06-3.69,1.58A.63.63,0,0,1,227.86,232.48ZM99.54,231a.59.59,0,0,1-.22-.05c-1.2-.6-2.39-1.23-3.55-1.87a.5.5,0,0,1-.2-.68.51.51,0,0,1,.68-.2c1.15.64,2.33,1.26,3.52,1.85a.52.52,0,0,1,.22.68A.51.51,0,0,1,99.54,231Zm135.63-1.76a.48.48,0,0,1-.45-.28.5.5,0,0,1,.23-.67c1.2-.58,2.39-1.17,3.57-1.78a.5.5,0,0,1,.46.89c-1.19.61-2.38,1.21-3.6,1.79A.41.41,0,0,1,235.17,229.23ZM92.55,227.14a.5.5,0,0,1-.26-.08c-1.15-.69-2.29-1.41-3.4-2.14a.5.5,0,0,1-.14-.69.49.49,0,0,1,.69-.14c1.1.72,2.23,1.43,3.37,2.12a.5.5,0,0,1,.17.68A.51.51,0,0,1,92.55,227.14Zm149.72-1.59a.52.52,0,0,1-.44-.25.51.51,0,0,1,.2-.68c1.16-.65,2.31-1.32,3.44-2a.5.5,0,1,1,.52.86q-1.71,1-3.48,2A.5.5,0,0,1,242.27,225.55ZM85.88,222.73a.52.52,0,0,1-.29-.09q-1.64-1.19-3.21-2.43a.5.5,0,0,1-.08-.7.52.52,0,0,1,.71-.08c1,.82,2.09,1.62,3.16,2.4a.5.5,0,0,1,.12.7A.51.51,0,0,1,85.88,222.73Zm-6.26-5a.52.52,0,0,1-.33-.12c-.9-.79-1.8-1.6-2.66-2.41l-.31-.3a.49.49,0,0,1,0-.7.5.5,0,0,1,.71,0l.3.29c.86.81,1.74,1.61,2.64,2.38a.5.5,0,0,1-.33.88Zm-5.8-5.5a.51.51,0,0,1-.36-.15c-.94-1-1.86-2-2.74-2.94a.49.49,0,0,1,0-.7.5.5,0,0,1,.71,0c.88,1,1.79,2,2.72,2.91a.5.5,0,0,1,0,.71A.54.54,0,0,1,73.82,212.27Zm-5.34-6a.51.51,0,0,1-.39-.19c-.86-1-1.69-2.1-2.49-3.15a.51.51,0,0,1,.1-.7.5.5,0,0,1,.7.1c.79,1,1.62,2.09,2.46,3.12a.49.49,0,0,1-.06.7A.51.51,0,0,1,68.48,206.32Zm-4.81-6.39a.49.49,0,0,1-.41-.22c-.76-1.11-1.5-2.25-2.19-3.38a.5.5,0,0,1,.85-.52c.68,1.11,1.41,2.24,2.16,3.34a.49.49,0,0,1-.13.69A.47.47,0,0,1,63.67,199.93Zm-4.18-6.81a.51.51,0,0,1-.44-.26c-.65-1.18-1.27-2.39-1.85-3.58a.5.5,0,0,1,.24-.67.49.49,0,0,1,.66.23c.57,1.18,1.19,2.37,1.82,3.54a.48.48,0,0,1-.19.67A.44.44,0,0,1,59.49,193.12ZM56,185.91a.5.5,0,0,1-.47-.31c-.51-1.23-1-2.5-1.44-3.75a.5.5,0,0,1,.94-.34c.44,1.24.92,2.49,1.43,3.71a.51.51,0,0,1-.27.65A.46.46,0,0,1,56,185.91Zm-2.66-7.54a.49.49,0,0,1-.48-.36c-.37-1.29-.71-2.6-1-3.9a.5.5,0,0,1,.38-.6.5.5,0,0,1,.59.38c.29,1.28.62,2.57,1,3.84a.5.5,0,0,1-.34.62A.36.36,0,0,1,53.36,178.37Zm-1.75-7.8a.5.5,0,0,1-.5-.42c-.21-1.33-.38-2.67-.51-4a.5.5,0,0,1,1-.09c.13,1.3.3,2.62.51,3.93a.5.5,0,0,1-.41.58Zm-.77-7.95a.51.51,0,0,1-.5-.49c0-.66,0-1.32,0-2s0-1.38,0-2.06a.49.49,0,0,1,.52-.48.5.5,0,0,1,.48.51c0,.67,0,1.35,0,2s0,1.29,0,1.94a.5.5,0,0,1-.49.52Zm.27-8h0a.49.49,0,0,1-.45-.54c.14-1.34.32-2.69.55-4a.49.49,0,0,1,.57-.41.5.5,0,0,1,.41.58c-.22,1.29-.4,2.61-.53,3.93A.52.52,0,0,1,51.11,154.63Zm1.35-7.88h-.12a.5.5,0,0,1-.36-.61c.31-1.31.68-2.61,1.09-3.88a.5.5,0,0,1,.63-.32.49.49,0,0,1,.32.62c-.4,1.25-.76,2.53-1.07,3.82A.5.5,0,0,1,52.46,146.75Zm2.45-7.61a.41.41,0,0,1-.19,0,.5.5,0,0,1-.28-.65c.5-1.24,1.06-2.48,1.65-3.68a.5.5,0,1,1,.89.44c-.57,1.18-1.12,2.39-1.61,3.62A.51.51,0,0,1,54.91,139.14ZM58.43,132a.47.47,0,0,1-.25-.07.49.49,0,0,1-.18-.68c.68-1.15,1.39-2.3,2.13-3.42a.5.5,0,0,1,.83.55c-.72,1.1-1.43,2.24-2.1,3.37A.5.5,0,0,1,58.43,132Zm4.41-6.68a.47.47,0,0,1-.3-.1.5.5,0,0,1-.11-.69c.8-1.08,1.63-2.15,2.48-3.18a.49.49,0,0,1,.7-.07.5.5,0,0,1,.07.7c-.84,1-1.66,2.07-2.44,3.14A.51.51,0,0,1,62.84,125.29Zm5.07-6.18a.46.46,0,0,1-.33-.13.5.5,0,0,1,0-.71c.9-1,1.85-2,2.8-2.89a.49.49,0,0,1,.7,0,.5.5,0,0,1,0,.71c-.94.91-1.87,1.87-2.77,2.85A.49.49,0,0,1,67.91,119.11Zm5.72-5.59a.48.48,0,0,1-.37-.17.49.49,0,0,1,0-.7c1-.89,2.06-1.75,3.11-2.57a.51.51,0,0,1,.62.8c-1,.8-2.07,1.65-3.07,2.52A.5.5,0,0,1,73.63,113.52Zm83.1-1.58a.5.5,0,0,1-.44-.27,17.31,17.31,0,0,0-2.32-3.11.5.5,0,0,1,.75-.67,17.33,17.33,0,0,1,2.45,3.32.49.49,0,0,1-.21.67A.46.46,0,0,1,156.73,111.94ZM80,108.62a.47.47,0,0,1-.41-.22.49.49,0,0,1,.13-.69c1.1-.76,2.24-1.49,3.38-2.18a.49.49,0,0,1,.69.17.5.5,0,0,1-.17.69c-1.13.67-2.25,1.4-3.34,2.14A.47.47,0,0,1,80,108.62ZM151.46,106a.49.49,0,0,1-.32-.12,33.37,33.37,0,0,0-3.18-2.33.5.5,0,0,1,.55-.84,34.92,34.92,0,0,1,3.27,2.41.5.5,0,0,1-.32.88ZM86.8,104.5a.51.51,0,0,1-.45-.27.5.5,0,0,1,.21-.67c1.18-.62,2.4-1.21,3.63-1.76a.49.49,0,0,1,.66.25.51.51,0,0,1-.25.66c-1.21.54-2.41,1.12-3.57,1.73A.49.49,0,0,1,86.8,104.5Zm58-2.88a.46.46,0,0,1-.22-.06c-1.15-.57-2.37-1.11-3.61-1.59a.5.5,0,0,1-.29-.64.5.5,0,0,1,.65-.29c1.27.49,2.52,1,3.7,1.63a.5.5,0,0,1,.22.67A.51.51,0,0,1,144.76,101.62Zm-50.67-.4a.51.51,0,0,1-.47-.32.49.49,0,0,1,.29-.64c1.25-.48,2.53-.92,3.81-1.32a.48.48,0,0,1,.62.33.49.49,0,0,1-.33.62c-1.25.4-2.52.83-3.75,1.3A.47.47,0,0,1,94.09,101.22Zm7.62-2.39a.5.5,0,0,1-.12-1c1.29-.33,2.61-.62,3.93-.87a.5.5,0,0,1,.59.39.51.51,0,0,1-.4.59c-1.3.25-2.6.54-3.88.86Zm35.6-.09-.13,0c-1.24-.35-2.53-.67-3.85-.94a.5.5,0,0,1-.39-.59.51.51,0,0,1,.59-.39c1.34.28,2.66.6,3.92,1a.51.51,0,0,1,.35.62A.51.51,0,0,1,137.31,98.74Zm-27.75-1.42a.5.5,0,0,1-.07-1c1.32-.18,2.66-.33,4-.44a.5.5,0,1,1,.08,1c-1.31.12-2.64.26-3.94.44Zm19.93-.18h-.07c-1.27-.16-2.6-.3-3.94-.39a.5.5,0,0,1-.47-.53.51.51,0,0,1,.54-.47c1.36.1,2.71.23,4,.4a.5.5,0,0,1-.06,1Zm-12-.51a.5.5,0,0,1-.5-.48.51.51,0,0,1,.48-.52c1.33,0,2.69-.06,4,0a.51.51,0,0,1,.49.51.5.5,0,0,1-.51.49c-1.31,0-2.66,0-4,0Z" fill="#d1d3d4"></path></g></svg>