<svg xmlns="http://www.w3.org/2000/svg" viewBox="0 0 400 300" width="0" height="0" class="illustration styles_illustrationTablet__1DWOa"><g id="_324_waiting_outline" data-name="#324_waiting_outline"><path d="M157.57,129.44H165a0,0,0,0,1,0,0v4.65a3.26,3.26,0,0,1-3.26,3.26h-.89a3.26,3.26,0,0,1-3.26-3.26v-4.65A0,0,0,0,1,157.57,129.44Z" transform="translate(9.14 -10.33) rotate(3.78)" fill="#ffc9b0"></path><path d="M161.67,138.38h-.28l-.88-.05a4.27,4.27,0,0,1-4-4.53l.3-4.65a1,1,0,0,1,1.07-.93l7.39.49a1,1,0,0,1,.68.34,1,1,0,0,1,.25.72l-.31,4.64A4.26,4.26,0,0,1,161.67,138.38Zm-2.9-8.11-.24,3.65a2.27,2.27,0,0,0,2.11,2.4l.88.06h0a2.27,2.27,0,0,0,2.41-2.11l.24-3.64Z" fill="#093f68"></path><path d="M181.23,94.39s1.6-6.57-6.18-11.17-12.51-3.29-12.64-1.83,3,2.94,3,2.94a26,26,0,0,0-15,5.45c-7.58,5.85-10,11.86-6.28,23.92a33,33,0,0,0,10.32,15s12.18-.29,17.42-8.52S181.23,94.39,181.23,94.39Z" fill="#725858"></path><path d="M154.47,129.66a1,1,0,0,1-.61-.21A33.66,33.66,0,0,1,143.19,114c-3.62-11.7-1.83-18.48,6.63-25a27.58,27.58,0,0,1,12.66-5.42,2.89,2.89,0,0,1-1.07-2.26,2.17,2.17,0,0,1,1.32-1.71c2-1,6.59-.93,12.83,2.75,8.28,4.9,6.73,11.91,6.64,12.28-.18.77-4.21,17.79-9.47,26.05-5.46,8.58-17.72,9-18.24,9Zm10.89-44.33A25.32,25.32,0,0,0,151,90.57c-6.65,5.14-9.75,10.52-5.94,22.84a32.23,32.23,0,0,0,9.7,14.23c2-.13,11.84-1.12,16.24-8,5.09-8,9.18-25.27,9.22-25.44h0c.05-.24,1.29-5.94-5.72-10.08-6.85-4-10.78-3.11-11.16-2.51a5.84,5.84,0,0,0,2.46,1.85,1,1,0,0,1,.54,1.14,1,1,0,0,1-1,.77Z" fill="#093f68"></path><path d="M171.32,134.77c-4.6.92-9.3-.76-13.09-3.32-2-1.33-5.07-2.8-4.71-5.6a7.33,7.33,0,0,1,1.49-3.27,26,26,0,0,0,4.15-7.44c1-3.33-.34-6.85,1.14-10.2,2.57-5.86,9.53-5.13,14.67-7.09.57-.21,6.44-2.45,6.26-3.46l3.69,18.45C187,123,181.69,132.69,171.32,134.77Z" fill="#ffc9b0"></path><path d="M168.74,136a20,20,0,0,1-11.07-3.74l-.85-.55c-2-1.25-4.68-3-4.29-6A8.3,8.3,0,0,1,154.2,122a25.21,25.21,0,0,0,4-7.13,14.68,14.68,0,0,0,.35-4.28,13.83,13.83,0,0,1,.84-6c2-4.63,6.59-5.58,10.6-6.41a30.92,30.92,0,0,0,4.63-1.21,23.81,23.81,0,0,0,5.64-2.72,1,1,0,0,1,2,0l3.69,18.44c2.26,11.27-3.79,21-14.38,23.11h0A14.32,14.32,0,0,1,168.74,136Zm2.58-1.25h0Zm9.29-38.39a32.16,32.16,0,0,1-5.28,2.4,31.78,31.78,0,0,1-4.94,1.31c-3.89.81-7.56,1.57-9.18,5.26a12.12,12.12,0,0,0-.67,5.21,16.82,16.82,0,0,1-.42,4.86,26.66,26.66,0,0,1-4.3,7.75,6.58,6.58,0,0,0-1.31,2.81c-.21,1.65,1.27,2.73,3.38,4.07l.9.58c4.15,2.79,8.54,3.92,12.33,3.16,9.46-1.89,14.85-10.62,12.82-20.75Z" fill="#093f68"></path><circle cx="177.79" cy="108.64" r="1.74" fill="#093f68"></circle><path d="M182.46,108.5s5.91,6.79,4.79,7.32a19.45,19.45,0,0,1-4.06.88" fill="#ffc9b0"></path><path d="M183.19,117.7a1,1,0,0,1-.12-2,24.89,24.89,0,0,0,3.14-.58,43.57,43.57,0,0,0-4.5-6,1,1,0,0,1,.09-1.41,1,1,0,0,1,1.42.1c5.49,6.33,5.23,7.59,5.14,8a1.23,1.23,0,0,1-.68.87,19.76,19.76,0,0,1-4.37,1Zm3.21-2.11h0Z" fill="#093f68"></path><path d="M160.92,111s-5.14-2.22-6.76,2.28,2.09,10.89,9.15,7.4" fill="#ffc9b0"></path><path d="M159.47,122.67a6.33,6.33,0,0,1-4.3-1.6,7.63,7.63,0,0,1-1.95-8.14,4.94,4.94,0,0,1,2.72-3.05,7.57,7.57,0,0,1,5.38.19,1,1,0,0,1-.8,1.84,5.63,5.63,0,0,0-3.8-.2,3,3,0,0,0-1.62,1.9,5.68,5.68,0,0,0,1.4,6c1.56,1.39,3.82,1.45,6.36.2a1,1,0,1,1,.89,1.79A9.75,9.75,0,0,1,159.47,122.67Z" fill="#093f68"></path><path d="M171.43,108.4a2,2,0,0,1-.75-3.85l7.22-2.91a2,2,0,1,1,1.5,3.71l-7.22,2.91A2,2,0,0,1,171.43,108.4Z" fill="#093f68"></path><path d="M176.28,126.93a1,1,0,0,1-.18-2l6.8-1.21a1,1,0,0,1,.35,2l-6.8,1.2Z" fill="#093f68"></path><path d="M178,176.85,147.45,183l-6.28-32.6a13.85,13.85,0,0,1,11.26-16l3.27-.57a13.85,13.85,0,0,1,16,11.26Z" fill="#3bb1f1"></path><path d="M147.45,184a.93.93,0,0,1-.56-.17,1,1,0,0,1-.43-.64l-6.27-32.6a14.87,14.87,0,0,1,12.07-17.21l3.27-.57a14.87,14.87,0,0,1,17.19,12.08L179,176.66a1,1,0,0,1-.79,1.17l-30.54,6.1A.62.62,0,0,1,147.45,184Zm10.66-49.41a13.11,13.11,0,0,0-2.24.19l-3.27.57a12.88,12.88,0,0,0-10.45,14.88l6.09,31.6,28.57-5.71-6.06-30.86a12.87,12.87,0,0,0-12.64-10.67Z" fill="#093f68"></path><path d="M147.45,183s1.13,10.86,10.06,11.8c7.22.77,27.62.74,35.19.71a3,3,0,0,1,3,2.86l1.44,27.16L210,226s2.53-41.65-.3-44.94S178,176.85,178,176.85Z" fill="#093f68"></path><path d="M210,227h0l-12.87-.49a1,1,0,0,1-1-.95l-1.44-27.16a2,2,0,0,0-2-1.91h0c-8.22,0-28.11,0-35.29-.71-9.63-1-10.95-12.58-11-12.69a1,1,0,0,1,.8-1.09l30.54-6.1a.6.6,0,0,1,.23,0c4.9.15,29.51,1.07,32.47,4.52.6.71,2,2.36,1.45,24.39-.28,10.72-.91,21.16-.92,21.27A1,1,0,0,1,210,227Zm-11.92-2.46,11,.42c1.18-20,1.46-41.38-.12-43.25-1.74-2-19.08-3.46-30.9-3.83l-29.49,5.9c.47,2.49,2.37,9.31,9,10,7.09.75,26.89.74,35.07.7h0a4,4,0,0,1,4,3.8Z" fill="#093f68"></path><path d="M189.3,208.1H153.68a14.26,14.26,0,0,1-13.84-10.79l-12.46-49.55a6.27,6.27,0,1,1,12.17-3.06L152,194.24a1.72,1.72,0,0,0,1.67,1.31H189.3a6.28,6.28,0,0,1,0,12.55Z" fill="#fff"></path><path d="M189.29,209.1H153.68a15.25,15.25,0,0,1-14.81-11.55L126.41,148a7.27,7.27,0,1,1,14.11-3.55L153,194a.73.73,0,0,0,.7.55h35.61a7.28,7.28,0,1,1,0,14.55ZM133.48,141a5.2,5.2,0,0,0-1.3.16,5.28,5.28,0,0,0-3.83,6.4l12.46,49.55a13.25,13.25,0,0,0,12.87,10h35.61a5.28,5.28,0,1,0,0-10.55H153.68a2.72,2.72,0,0,1-2.64-2.06l-12.46-49.55a5.29,5.29,0,0,0-5.1-4Z" fill="#093f68"></path><polygon points="197.16 225.48 197.16 235.04 219.21 235.04 210.03 225.97 197.16 225.48" fill="#f56132"></polygon><path d="M219.21,236H197.16a1,1,0,0,1-1-1v-9.56a1,1,0,0,1,1-1l12.86.49a1,1,0,0,1,.67.29l9.18,9.06a1,1,0,0,1-.7,1.72Zm-21.05-2h18.62L209.6,227l-11.44-.43Z" fill="#093f68"></path><rect x="161.38" y="208.1" width="6.01" height="22.7" fill="#3bb1f1"></rect><path d="M167.39,231.8h-6a1,1,0,0,1-1-1V208.1a1,1,0,0,1,1-1h6a1,1,0,0,1,1,1v22.7A1,1,0,0,1,167.39,231.8Zm-5-2h4V209.1h-4Z" fill="#093f68"></path><rect x="154.98" y="230.8" width="18.93" height="4.24" rx="2.12" fill="#3bb1f1"></rect><path d="M171.79,236H157.1a3.12,3.12,0,1,1,0-6.24h14.69a3.12,3.12,0,1,1,0,6.24ZM157.1,231.8a1.12,1.12,0,1,0,0,2.24h14.69a1.12,1.12,0,1,0,0-2.24Z" fill="#093f68"></path><path d="M272.81,236H127.19a1,1,0,0,1,0-2H272.81a1,1,0,0,1,0,2Z" fill="#093f68"></path><path d="M161.55,148.49a215.72,215.72,0,0,0,5.52,21.59l20.42,1.34,1.33,9c-.24.15-3.25,1.39-11.65,2.56-22.16,3.11-22.85-1.27-28.76-31.92" fill="#3bb1f1"></path><path d="M167.75,184.76c-13.85,0-15.37-7.85-20.2-32.89l-.13-.65a1,1,0,0,1,2-.38l.12.65C155.35,181.75,156,184.92,177,182a59.86,59.86,0,0,0,10.68-2.21l-1.1-7.38L167,171.07a1,1,0,0,1-.88-.69,214.79,214.79,0,0,1-5.55-21.7,1,1,0,0,1,2-.38,213.39,213.39,0,0,0,5.29,20.82l19.74,1.3a1,1,0,0,1,.92.86l1.33,9a1,1,0,0,1-.46,1c-.55.34-3.95,1.57-12,2.7A69.59,69.59,0,0,1,167.75,184.76Z" fill="#093f68"></path><path d="M187.47,171.7s6.41-1.53,10.3.1,7.34,7.07,5.3,7.29-6.74-1.54-7.74-1.18-6.51,1.2-6.51,1.2Z" fill="#ffc9b0"></path><path d="M188.82,180.11a1,1,0,0,1-1-.82l-1.36-7.41a1,1,0,0,1,.75-1.15c.28-.07,6.79-1.59,10.93.15,3.29,1.38,6.81,5.61,6.49,7.8a1.59,1.59,0,0,1-1.47,1.4,16.62,16.62,0,0,1-4.8-.7,13.5,13.5,0,0,0-2.76-.51c-1,.36-5.71,1.08-6.65,1.23Zm6.88-3.25a15.61,15.61,0,0,1,3.14.57,21.78,21.78,0,0,0,3.8.68,10.79,10.79,0,0,0-5.26-5.39c-2.7-1.14-6.9-.57-8.75-.23l1,5.48c2.08-.33,4.79-.8,5.36-1A2.2,2.2,0,0,1,195.7,176.86Z" fill="#093f68"></path><circle cx="239.75" cy="87.68" r="22.71" fill="#fff"></circle><path d="M239.75,111.39a23.72,23.72,0,1,1,23.71-23.71A23.74,23.74,0,0,1,239.75,111.39Zm0-45.43a21.72,21.72,0,1,0,21.71,21.72A21.74,21.74,0,0,0,239.75,66Z" fill="#dfeaef"></path><path d="M253.6,88.68H239.75a1,1,0,0,1-.87-.52l-8.6-15.6a1,1,0,1,1,1.76-1l8.3,15.08H253.6a1,1,0,0,1,0,2Z" fill="#dfeaef"></path><path d="M249.78,219.18s-8-16.24-6.86-27.22c0,0,6.41,2.9,9.5,11.46,4.71,13.07,3.63,15.77,3.63,15.77Z" fill="#70cc40"></path><path d="M256.05,220.19h-6.27a1,1,0,0,1-.9-.56c-.33-.67-8.08-16.63-6.95-27.76a1,1,0,0,1,.49-.76,1,1,0,0,1,.91,0c.28.13,6.84,3.18,10,12,4.61,12.78,3.82,16,3.61,16.49A1,1,0,0,1,256.05,220.19Zm-5.63-2h4.75c0-1.36-.38-5.25-3.69-14.43a20.31,20.31,0,0,0-7.66-10.12C243.61,203,249.13,215.42,250.42,218.18Z" fill="#093f68"></path><path d="M253.57,218.4s-6-23.16,2.62-38.67c0,0,4.95,5.67,6.14,19.38a34.7,34.7,0,0,1-3.58,18.94Z" fill="#70cc40"></path><path d="M253.57,219.4a1,1,0,0,1-1-.75,77.34,77.34,0,0,1-1.94-13.72c-.39-7.18.1-17.47,4.66-25.68a1,1,0,0,1,.76-.51,1,1,0,0,1,.86.33c.21.24,5.18,6.07,6.39,20a35.4,35.4,0,0,1-3.72,19.54,1,1,0,0,1-.8.49l-5.17.35Zm2.75-37.74c-6.41,13.3-2.87,31.65-2,35.68l3.78-.25a34.6,34.6,0,0,0,3.2-17.89C260.5,189.56,257.75,184,256.32,181.66Z" fill="#093f68"></path><path d="M256.15,217.67s1.86-15.46,14.36-25.55c0,0,3.68,11.52-6.65,26.92Z" fill="#70cc40"></path><path d="M263.86,220l-.17,0L256,218.66a1,1,0,0,1-.82-1.11c.08-.65,2-16,14.72-26.21a1,1,0,0,1,.91-.18,1,1,0,0,1,.67.65c.16.49,3.71,12.16-6.77,27.78A1,1,0,0,1,263.86,220Zm-6.56-3.18,6.09,1.08c7.4-11.33,7-20.47,6.48-24C260.59,202.23,257.9,213.56,257.3,216.86Z" fill="#093f68"></path><polygon points="264.71 235.04 248.99 235.04 246.66 215.9 267.04 215.9 264.71 235.04" fill="#3bb1f1"></polygon><path d="M264.71,236H249a1,1,0,0,1-1-.88L245.67,216a1,1,0,0,1,.24-.79,1,1,0,0,1,.75-.33H267a1,1,0,0,1,.75.33,1,1,0,0,1,.25.79l-2.33,19.14A1,1,0,0,1,264.71,236Zm-14.84-2h14l2.08-17.14H247.79Z" fill="#093f68"></path></g></svg>